<svg width="5" height="9" viewBox="0 0 5 9" fill="none" xmlns="http://www.w3.org/2000/svg">
<path opacity="0.5" d="M4.76836 4.19961C4.76836 4.0625 4.70742 3.93555 4.60586 3.83906L0.822655 0.142188C0.731249 0.0507822 0.614453 9.26816e-07 0.482422 9.32587e-07C0.208203 9.44573e-07 -3.58263e-07 0.208204 -3.46276e-07 0.482423C-3.40727e-07 0.609376 0.0507805 0.736329 0.142187 0.827735L3.59531 4.19961L0.142187 7.57656C0.0507808 7.66797 -2.70806e-08 7.78477 -2.10873e-08 7.92188C-9.32282e-09 8.19102 0.208203 8.4043 0.482422 8.4043C0.614453 8.4043 0.731249 8.35352 0.822656 8.26211L4.60586 4.56523C4.7125 4.45859 4.76836 4.3418 4.76836 4.19961Z" fill="#1B023D"/>
</svg>
